<svg xmlns="http://www.w3.org/2000/svg" viewBox="0 0 45.41 60"><defs><style>.cls-1{fill:#898989;}</style></defs><title>Recurso 1</title><g id="Capa_2" data-name="Capa 2"><g id="Capa_1-2" data-name="Capa 1"><path class="cls-1" d="M37.71,46.73a2.14,2.14,0,0,0,.13-.19c-.18.26-.36.53-.55.78C37.44,47.12,37.57,46.93,37.71,46.73Z"/><path class="cls-1" d="M33.65,51.61l.15-.14.13-.15-.4.42Z"/><polygon class="cls-1" points="38.4 10.9 37.13 12.65 39.71 12.65 38.4 10.9"/><path class="cls-1" d="M6.67,9.28l-1.55,0v4H6.67C9.09,13.09,8.83,9.21,6.67,9.28Z"/><polygon class="cls-1" points="14.17 12.65 16.75 12.65 15.44 10.9 14.17 12.65"/><path class="cls-1" d="M0,0V24.45a40.77,40.77,0,0,0,.7,5.84l.19-.2,4.44-4.55v4.94H.73A42.58,42.58,0,0,0,1.89,35l.17-.18,3.28-3.36v4.95h-3c.34.94.71,1.89,1.12,2.84L3.65,39l1.71-1.73v4.94H5c.25.47.51.93.78,1.39l.28.47c.57.93,1.18,1.85,1.82,2.76L8,46.66l3.1-3.19v4.94H9c.45.57.92,1.12,1.4,1.68l.17-.18.54-.56v1.54c.69.75,1.4,1.46,2.15,2.18l.17-.17,3.46-3.55v4.93h-2.3l.45.4c.43.38.87.73,1.32,1.08l.17-.17.37-.37v1c.91.7,1.86,1.39,2.84,2l.17-.16,2.77-2.82V60h0c.92-.52,1.81-1.06,2.68-1.62l.77-.8,2.31-2.36v1c.61-.47,1.2-.93,1.76-1.41.21-.16.4-.34.61-.52H29.41l4.83-4.93V51c.78-.84,1.52-1.7,2.21-2.58H35.18l3.65-3.72.7-.72a42.31,42.31,0,0,0,3.57-7.61H40.94l2.84-2.92.31-.32c.23-.88.43-1.77.6-2.64H40.92l4.13-4.23L45.3,26c0-.46.08-.92.09-1.38H40.91l4.26-4.36.24-.24V0H0ZM5.32,24.61H.5l4.82-4.93v4.93ZM2.52,14.43V9.17l-1-1.08h5.5c5.2.09,5.08,6.06,0,6.34Zm8.57,5.25v4.93H6.26Zm0,5.86v4.94H6.28Zm0,5.87v4.95H6.29Zm0,10.81H6.3l4.82-4.94v4.94ZM12,24.61l4.82-4.93v4.93Zm4.83.93v4.94H12.06Zm0,5.87v4.95H12.06Zm0,5.87v4.94H12.07Zm0,11.13H12.08l4.83-4.94Zm-3.27-35-.73,1H10.25l3.88-5.26-.77-1.09h2.73l4.74,6.35H18.05l-.76-1Zm9,6.25v4.93H17.82Zm0,5.86v4.94H17.82Zm0,5.87v4.95H17.84Zm0,5.87v4.94H17.85Zm0,6.19v4.94H17.86Zm0,10.81H17.87l4.82-4.93v4.93Zm.9-29.67,4.82-4.93v4.93Zm4.83.93v4.94H23.6Zm0,5.87v4.95H23.61Zm0,5.87v4.94H23.63Zm0,6.19v4.94H23.63Zm0,10.81H23.64l4.83-4.93Zm.9-29.67,4.81-4.93v4.93Zm4.83.93v4.94H29.37Zm0,5.87v4.95H29.38Zm0,5.87v4.94H29.4Zm0,11.13H29.41l4.82-4.94Zm.91-23.8L40,19.68v4.93Zm4.84.93v4.94H35.15Zm0,5.87v4.95H35.17Zm0,10.81H35.17L40,37.28ZM36.32,8.09h2.73l4.73,6.35H41l-.76-1H36.6l-.73,1H33.21l3.88-5.26Zm-3.58,0v6.34H30V9.17L29,8.09Zm-4.2.51-.37,1.91H27.3V9.76c-5-2.16-7.44,4.86,1,3.05V14.2C16,16.25,18.66,5.72,28.54,8.6Z"/></g></g></svg>