<svg xmlns="http://www.w3.org/2000/svg" xmlns:xlink="http://www.w3.org/1999/xlink" width="49" height="25" viewBox="0 0 49 25">
    <defs>
        <path id="a" d="M0 0h49v25H0z"/>
    </defs>
    <g fill="none" fill-rule="evenodd">
        <mask id="b" fill="#fff">
            <use xlink:href="#a"/>
        </mask>
        <path fill="#575859" d="M45.975 14.345c-1.032 2.447-4.52 5.205-11.834 7.075-1.12.265-1.507-.446-.776-1.114 1.206-.756 7.015-10.807 7.748-12.81.43-1.024 1.247-.621 1.765-.223 2.323 1.557 4.088 4.092 3.097 7.072m-20.571 8.407c-4.045.444-13.04-.934-13.213-2.133.173-2.893 14.288-7.697 16.828-5.027 1.076 2.09-.99 7.028-3.615 7.16m-19.71-5.16c-2.111-1.554-6.243-6.003.602-10.63 3.615-2.177 5.637-2.668 8.132-3.2 1.206-.27 2.067.044.99.978-2.28 2.447-7.014 10.54-7.444 12.32-.345 1.202-1.033 1.51-2.28.533M22.175 2.78c2.797-1.021 11.104 0 14.331 1.602 1.033 1.024-4.605 4.313-11.318 5.738-9.598 2-5.036-5.65-3.013-7.34M24.5 0C10.97 0 0 5.597 0 12.5 0 19.402 10.97 25 24.5 25S49 19.402 49 12.5C49 5.597 38.03 0 24.5 0" mask="url(#b)"/>
    </g>
</svg>
