<svg xmlns="http://www.w3.org/2000/svg" xmlns:xlink="http://www.w3.org/1999/xlink" width="50" height="41" viewBox="0 0 50 41">
    <defs>
        <path id="a" d="M0 0h49.661v40.14H.001z"/>
    </defs>
    <g fill="none" fill-rule="evenodd">
        <mask id="b" fill="#fff">
            <use xlink:href="#a"/>
        </mask>
        <path fill="#575859" d="M16.175 14.58l-.006-.003-1.347-.588c-1.144-.467-2.295-.914-3.442-1.382l-1.387-.603-.692-.33-.688-.352-.683-.383-.677-.413-.67-.45-.664-.49-.653-.535-.643-.583-.44-.446c.08.56.163 1.118.252 1.674l.103.569.115.512.121.42.121.286.107.14.487.387.54.383.563.36.584.34.604.32.622.306.637.293 1.318.555c1.385.553 2.78 1.078 4.161 1.638l1.411.61.702.33.698.35.691.374.683.399.367.234c-.809-1.344-1.83-2.635-2.895-3.922zm13.852 1.623l-.07.05-.599.476-.585.52-.572.564-.16.177c-.547 1.03-.789 1.974-.765 2.886l.465-.516.614-.613.274-.247c.152-1.086.62-2.173 1.398-3.297zm11.46-3.143l.584-.306.571-.326.552-.352.534-.377.396-.315.371-3.203-.472.436-.653.546-.664.5-.67.46-.68.426-.685.392-.689.365-.692.34-1.387.63c-1.144.488-2.292.957-3.436 1.45l-1.336.617-.656.33-.602.33c-1.568 1.337-2.354 2.633-2.675 4.003l.426-.348.651-.48.661-.445.666-.41.674-.377.677-.35.68-.327.681-.305 1.361-.56c1.321-.511 2.652-.994 3.963-1.517l.63-.263.615-.274.603-.29zM24.778 28.55c2.294-4.925 4.801-7.468 8.632-9.057l9.48-3.39 1.318-3.537c-2.36 1.81-6.09 3.184-9.404 4.463-5.107 1.95-7.514 4.644-10.026 9.72v1.8zm0 0c-2.296-4.925-4.803-7.15-8.633-8.74L6.56 16.58l-1.324-3.653c2.36 1.808 5.831 3.035 9.145 4.314 5.107 1.95 7.884 4.432 10.398 9.508v1.8zM44.52 6.572L42.71 7.708c-5.363-4.717-11.077-5.87-17.88-5.823-6.873-.047-12.904 1.176-18.196 6.21L4.78 6.96l.52-.555.764-.708.803-.653.843-.601.876-.551.91-.5.937-.453.964-.41.987-.365 1.006-.325 1.023-.287 1.036-.248 1.045-.215 1.053-.181 1.056-.151L19.66.636 20.712.54 21.76.47 22.8.424l1.023-.027L24.83.388l1.01.008 1.025.027 1.038.048L28.95.54l1.054.096 1.056.12 1.056.152 1.052.18 1.046.216 1.036.248 1.023.287 1.006.325.987.366.963.408.938.454.91.5.877.55.842.602.804.653.763.708.156.167zM8.63 10.064C11.963 4.903 18.28 3.619 24.83 3.64c6.44-.021 12.654 1.219 16.046 6.222l4.012-3.037v-.002l.237-.18C40.09 1.17 31.761 0 24.83 0 17.754 0 9.22 1.219 4.223 6.995l.094.076.137.113.07.056h.001c1.078 1.056 2.27 2.164 3.48 2.797.194.086.415.12.623.027zM4.271 7.559l-.285-.285C1.54 10.242 0 14.366 0 20.07c0 17.27 14.095 20.07 24.83 20.07 10.736 0 24.831-2.8 24.831-20.07 0-5.704-1.539-9.828-3.986-12.796l-.284.276c-.053 1.509-.313 3.073-.53 4.55 1.071 2.309 1.578 5.053 1.65 7.97.157 8.578-4.203 17.59-21.68 18.178-10.988-.086-17.892-3.475-20.713-10.555-1.868-1.187-2.78-3.373-3.646-5.495l-.045-.571-.04-1.557.04-1.555.12-1.473.193-1.392.264-1.311.333-1.235.397-1.16.46-1.088.516-1.02.572-.95.534-.745c.204 1.455.457 3.385.906 3.756 5.561 4.668 15.348 4.067 20.057 13.477 5.116-10.436 14.151-9.117 19.711-13.786l.518-4.472c-6.484 7.01-15.297 4.632-20.229 15.116-5.315-10.293-14.007-7.753-20.507-14.673zm5.613 24.666c-1.36-.837-1.794-1.9-3.86-2.751-2.06-2.698-2.86-6.054-2.859-9.413 0-2.451.426-4.903 1.097-7.101l2.077 4.134a22.394 22.394 0 0 0-.179 2.976c0 13.697 9.086 16.46 18.67 16.429 9.583.03 18.67-2.732 18.67-16.43 0-1.404-.097-2.695-.279-3.88l1.486-3.056c.782 1.947 1.206 4.44 1.157 6.952-.08 4.048-1.393 8.138-4.43 10.063l-.493.732-.525.667-.56.62-.595.572-.626.528-.656.485-.683.443-.71.402-.735.364-.758.325-.778.29-.798.257-.815.225-.83.193-.846.165-.858.137-.87.11-.88.087-.89.065-.895.043-.9.024h-1.806l-.9-.024-.895-.043-.889-.065-.879-.086-.87-.111-.859-.137-.846-.165-.83-.193-.816-.225-.797-.256-.779-.291-.757-.325-.735-.364-.71-.402-.684-.443-.656-.485-.626-.528-.515-.514z" mask="url(#b)"/>
    </g>
</svg>
