<svg xmlns="http://www.w3.org/2000/svg" xmlns:xlink="http://www.w3.org/1999/xlink" width="69" height="29" viewBox="0 0 69 29">
    <defs>
        <path id="a" d="M0 .32h68.192V28H0z"/>
        <path id="c" d="M0 28h67.97V0H0z"/>
    </defs>
    <g fill="none" fill-rule="evenodd">
        <path fill="#575859" d="M34.5 2.856c6.057 0 10.963 4.766 10.963 10.646 0 5.877-4.906 10.642-10.964 10.642-6.054 0-10.961-4.765-10.961-10.642 0-5.88 4.907-10.646 10.961-10.646M34.5 25c6.543 0 11.844-5.147 11.844-11.498C46.343 7.147 41.043 2 34.5 2 27.96 2 22.657 7.147 22.657 13.502 22.656 19.852 27.96 25 34.499 25"/>
        <mask id="b" fill="#fff">
            <use xlink:href="#a"/>
        </mask>
        <path fill="#575859" d="M20.574 9.596a13.431 13.431 0 0 0-.587 2.185H4.298a68.732 68.732 0 0 1-1.967-2.185h18.243zm1.098 11.44h-6.854a70.604 70.604 0 0 1-2.884-2.184h8.69c.283.757.635 1.486 1.048 2.184zM34.138 2.178c6.863 0 12.43 5.363 12.43 11.98 0 6.61-5.567 11.974-12.43 11.974-6.864 0-12.43-5.363-12.43-11.974 0-6.617 5.566-11.98 12.43-11.98zm13.515 16.674h8.61a70.573 70.573 0 0 1-2.881 2.184h-6.777c.412-.698.763-1.427 1.048-2.184zm18.214-9.256a74.472 74.472 0 0 1-1.968 2.185H48.288a13.423 13.423 0 0 0-.584-2.185h18.163zm-6.716 6.812H48.31c.12-.71.186-1.441.188-2.18h12.995c-.77.744-1.55 1.47-2.343 2.18zm-50.106 0a86.163 86.163 0 0 1-2.341-2.18h13.073c.004.739.066 1.47.187 2.18H9.044zM1.853 9.596a64.868 64.868 0 0 0 1.951 2.185H3.8c.703.756 1.5 1.58 2.38 2.447h.006a83.08 83.08 0 0 0 2.319 2.18H8.5c.893.8 1.844 1.62 2.857 2.444h.004c.901.734 1.85 1.462 2.84 2.184h-.003a61.066 61.066 0 0 0 3.5 2.357h5.747C26.073 26.22 29.891 28 34.138 28c4.246 0 8.064-1.78 10.692-4.607h5.667C61.32 16.634 68.192 7.32 68.192 7.32H46.63c-2.47-4.185-7.14-7-12.492-7-5.352 0-10.019 2.815-12.49 7H0s.645.87 1.847 2.275h.006z" mask="url(#b)"/>
        <mask id="d" fill="#fff">
            <use xlink:href="#c"/>
        </mask>
        <path fill="#575859" d="M32.955 17h1.03v-6h-1.03zM28.637 17l1.659-3.527V17h1.63v-6h-1.791l-1.876 3.957L26.541 11h-1.825v6h1.388v-3.612L27.685 17zM37.295 13.382L40.067 17h1.127v-6h-1.268v3.65L37.135 11h-1.09v6h1.25zM42.224 17h1.03v-6h-1.03z" mask="url(#d)"/>
    </g>
</svg>
